<mxfile host="app.diagrams.net" modified="2021-11-03T03:39:09.765Z" agent="5.0 (Windows NT 6.1; WOW64) AppleWebKit/537.36 (KHTML, like Gecko) Chrome/86.0.4240.198 Safari/537.36" etag="WrHE4NI3kdOn7m5ThYuN" version="15.5.9" type="github">
  <diagram id="6ZMAc-CpmWxqlEE39a_y" name="第 1 页">
    <mxGraphModel dx="1185" dy="617" grid="1" gridSize="10" guides="1" tooltips="1" connect="1" arrows="1" fold="1" page="1" pageScale="1" pageWidth="827" pageHeight="1169" math="0" shadow="0">
      <root>
        <mxCell id="0" />
        <mxCell id="1" parent="0" />
        <mxCell id="XpX827LhPEl-OldUf2tg-29" style="edgeStyle=orthogonalEdgeStyle;rounded=0;orthogonalLoop=1;jettySize=auto;html=1;exitX=0;exitY=0.75;exitDx=0;exitDy=0;entryX=0.5;entryY=1;entryDx=0;entryDy=0;dashed=1;fontSize=16;endArrow=classic;endFill=1;startArrow=none;startFill=0;" edge="1" parent="1" source="XpX827LhPEl-OldUf2tg-1" target="XpX827LhPEl-OldUf2tg-27">
          <mxGeometry relative="1" as="geometry" />
        </mxCell>
        <mxCell id="XpX827LhPEl-OldUf2tg-1" value="中间件" style="rounded=0;whiteSpace=wrap;html=1;fontSize=16;" vertex="1" parent="1">
          <mxGeometry x="520" y="310" width="120" height="60" as="geometry" />
        </mxCell>
        <mxCell id="XpX827LhPEl-OldUf2tg-30" style="edgeStyle=orthogonalEdgeStyle;rounded=0;orthogonalLoop=1;jettySize=auto;html=1;exitX=0;exitY=0.75;exitDx=0;exitDy=0;entryX=1;entryY=0.75;entryDx=0;entryDy=0;dashed=1;fontSize=16;endArrow=classic;endFill=1;startArrow=none;startFill=0;" edge="1" parent="1" source="XpX827LhPEl-OldUf2tg-2" target="XpX827LhPEl-OldUf2tg-1">
          <mxGeometry relative="1" as="geometry" />
        </mxCell>
        <mxCell id="XpX827LhPEl-OldUf2tg-2" value="解码器" style="rounded=0;whiteSpace=wrap;html=1;fontSize=16;" vertex="1" parent="1">
          <mxGeometry x="707" y="310" width="120" height="60" as="geometry" />
        </mxCell>
        <mxCell id="XpX827LhPEl-OldUf2tg-15" value="" style="whiteSpace=wrap;html=1;aspect=fixed;" vertex="1" parent="1">
          <mxGeometry x="1190" y="890" width="20" height="20" as="geometry" />
        </mxCell>
        <mxCell id="XpX827LhPEl-OldUf2tg-16" value="" style="whiteSpace=wrap;html=1;aspect=fixed;" vertex="1" parent="1">
          <mxGeometry x="1200" y="900" width="20" height="20" as="geometry" />
        </mxCell>
        <mxCell id="XpX827LhPEl-OldUf2tg-28" value="" style="group" vertex="1" connectable="0" parent="1">
          <mxGeometry x="310" y="280" width="20" height="142" as="geometry" />
        </mxCell>
        <mxCell id="XpX827LhPEl-OldUf2tg-13" value="" style="whiteSpace=wrap;html=1;aspect=fixed;" vertex="1" parent="XpX827LhPEl-OldUf2tg-28">
          <mxGeometry width="20" height="20" as="geometry" />
        </mxCell>
        <mxCell id="XpX827LhPEl-OldUf2tg-14" value="" style="whiteSpace=wrap;html=1;aspect=fixed;" vertex="1" parent="XpX827LhPEl-OldUf2tg-28">
          <mxGeometry y="20" width="20" height="20" as="geometry" />
        </mxCell>
        <mxCell id="XpX827LhPEl-OldUf2tg-17" value="" style="whiteSpace=wrap;html=1;aspect=fixed;" vertex="1" parent="XpX827LhPEl-OldUf2tg-28">
          <mxGeometry y="40" width="20" height="20" as="geometry" />
        </mxCell>
        <mxCell id="XpX827LhPEl-OldUf2tg-18" value="" style="whiteSpace=wrap;html=1;aspect=fixed;" vertex="1" parent="XpX827LhPEl-OldUf2tg-28">
          <mxGeometry y="60" width="20" height="20" as="geometry" />
        </mxCell>
        <mxCell id="XpX827LhPEl-OldUf2tg-19" value="" style="whiteSpace=wrap;html=1;aspect=fixed;dashed=1;" vertex="1" parent="XpX827LhPEl-OldUf2tg-28">
          <mxGeometry y="91" width="20" height="20" as="geometry" />
        </mxCell>
        <mxCell id="XpX827LhPEl-OldUf2tg-23" style="edgeStyle=orthogonalEdgeStyle;rounded=0;orthogonalLoop=1;jettySize=auto;html=1;exitX=0;exitY=1;exitDx=0;exitDy=0;entryX=0;entryY=0;entryDx=0;entryDy=0;fontSize=16;dashed=1;endArrow=none;endFill=0;" edge="1" parent="XpX827LhPEl-OldUf2tg-28" source="XpX827LhPEl-OldUf2tg-18" target="XpX827LhPEl-OldUf2tg-19">
          <mxGeometry relative="1" as="geometry" />
        </mxCell>
        <mxCell id="XpX827LhPEl-OldUf2tg-24" style="edgeStyle=orthogonalEdgeStyle;rounded=0;orthogonalLoop=1;jettySize=auto;html=1;exitX=1;exitY=1;exitDx=0;exitDy=0;entryX=1;entryY=0;entryDx=0;entryDy=0;fontSize=16;dashed=1;endArrow=none;endFill=0;" edge="1" parent="XpX827LhPEl-OldUf2tg-28" source="XpX827LhPEl-OldUf2tg-18" target="XpX827LhPEl-OldUf2tg-19">
          <mxGeometry relative="1" as="geometry" />
        </mxCell>
        <mxCell id="XpX827LhPEl-OldUf2tg-25" style="edgeStyle=orthogonalEdgeStyle;rounded=0;orthogonalLoop=1;jettySize=auto;html=1;exitX=0;exitY=1;exitDx=0;exitDy=0;entryX=0;entryY=0;entryDx=0;entryDy=0;fontSize=16;dashed=1;endArrow=none;endFill=0;" edge="1" parent="XpX827LhPEl-OldUf2tg-28" target="XpX827LhPEl-OldUf2tg-27" source="XpX827LhPEl-OldUf2tg-19">
          <mxGeometry relative="1" as="geometry">
            <mxPoint y="143" as="sourcePoint" />
          </mxGeometry>
        </mxCell>
        <mxCell id="XpX827LhPEl-OldUf2tg-26" style="edgeStyle=orthogonalEdgeStyle;rounded=0;orthogonalLoop=1;jettySize=auto;html=1;exitX=1;exitY=1;exitDx=0;exitDy=0;entryX=1;entryY=0;entryDx=0;entryDy=0;fontSize=16;dashed=1;endArrow=none;endFill=0;" edge="1" parent="XpX827LhPEl-OldUf2tg-28" target="XpX827LhPEl-OldUf2tg-27" source="XpX827LhPEl-OldUf2tg-19">
          <mxGeometry relative="1" as="geometry">
            <mxPoint x="20" y="143" as="sourcePoint" />
          </mxGeometry>
        </mxCell>
        <mxCell id="XpX827LhPEl-OldUf2tg-27" value="" style="whiteSpace=wrap;html=1;aspect=fixed;" vertex="1" parent="XpX827LhPEl-OldUf2tg-28">
          <mxGeometry y="122" width="20" height="20" as="geometry" />
        </mxCell>
      </root>
    </mxGraphModel>
  </diagram>
</mxfile>
